# ProBuilder 5.0.7
# https://unity3d.com/unity/features/worldbuilding/probuilder
# 2024-02-07 7:54:21 PM

mtllib ./ConeFireVolume.mtl
o ConeFireVolume

g ConeFireVolume
v -0.5 -1 3.973658E-09
v -0.25 -1 0.4330127
v 0 7.947307E-09 3.973658E-09
v 0 -1 3.973658E-09
v 0.25 -1 0.4330127
v 0.5 -1 -5.563099E-08
v 0.2499999 -1 -0.4330127
v -0.2499999 -1 -0.4330127

vt 0 0
vt 1 5.960464E-08
vt 0.5 1.322876
vt -0.5 3.973658E-09
vt -0.25 0.4330127
vt 0.25 0.4330127
vt 0.5 -5.563099E-08
vt 0.2499999 -0.4330127
vt -0.2499999 -0.4330127

vn -0.8944272 0.4472136 -5.031211E-08
vn -0.4472136 0.4472136 0.7745966
vn 0 1 -1.250014E-07
vn 0 -1 0
vn 0.4472136 0.4472136 0.7745966
vn 0.8944272 0.4472136 -1.173949E-07
vn 0.4472135 0.4472136 -0.7745966
vn -0.4472136 0.4472136 -0.7745966

usemtl FireVolumeTest
f 1/1/1 2/2/2 3/3/3
f 4/1/4 2/5/4 1/4/4
f 2/1/2 5/2/5 3/3/3
f 4/1/4 5/6/4 2/5/4
f 5/1/5 6/2/6 3/3/3
f 4/1/4 6/7/4 5/6/4
f 6/1/6 7/2/7 3/3/3
f 4/1/4 7/8/4 6/7/4
f 7/1/7 8/2/8 3/3/3
f 4/1/4 8/9/4 7/8/4
f 8/1/8 1/2/1 3/3/3
f 4/1/4 1/4/4 8/9/4

